<svg xmlns="http://www.w3.org/2000/svg" xmlns:xlink="http://www.w3.org/1999/xlink" viewBox="0 0 115 36" width="115" height="36"><defs><clipPath id="a"><rect width="115" height="36" style="fill:none"/></clipPath></defs><title>belkin-logo-white</title><g style="clip-path:url(#a)"><path d="M109.2,20.8v7.6h-3.7V20.8c0-2.1-.8-3.3-2.8-3.3s-2.8,1.2-2.8,3.3v7.6H96.2V20.8c0-4.2,2.2-6.7,6.5-6.7s6.5,2.4,6.5,6.7m-56.9.7A7,7,0,0,1,45,28.8a7,7,0,0,1-7.3-7.4V9.4h3.7v6.7a5.69,5.69,0,0,1,4.4-1.9c3.9,0,6.5,2.9,6.5,7.3m-3.6,0a3.66,3.66,0,1,0-7.3,0,3.66,3.66,0,1,0,7.3,0m19.2.3v1.1H57.5a3.53,3.53,0,0,0,3.7,2.9,5.41,5.41,0,0,0,3.7-1.3L66.8,27a8.52,8.52,0,0,1-5.5,1.8c-4.4,0-7.4-2.9-7.4-7.2a7.16,7.16,0,0,1,7.2-7.4c4.2,0,6.8,2.8,6.8,7.6m-3.7-1.6a3.24,3.24,0,0,0-3.4-3,3.3,3.3,0,0,0-3.4,3Zm5.6,8.2h3.7V9.4H69.8Zm19-13.8H84.6l-4.9,6.1V9.4H76v19h3.7V21.8l4.9,6.6h4.5L83.4,21Zm1.7,13.8h3.7V14.6H90.5ZM14.6,6.4a3.16,3.16,0,0,0,3.2-3.2,3.2,3.2,0,0,0-6.4,0,3.1,3.1,0,0,0,3.2,3.2M11.7,9.7a2.1,2.1,0,1,0,2.1,2.1,2.05,2.05,0,0,0-2.1-2.1m-9.6-1A2.2,2.2,0,0,0,0,10.9,2.11,2.11,0,0,0,2.1,13a2.11,2.11,0,0,0,2.1-2.1A2.2,2.2,0,0,0,2.1,8.7m13.2,3.1a2.1,2.1,0,1,0,2.1-2.1,2.05,2.05,0,0,0-2.1,2.1M27,8.7a2.11,2.11,0,0,0-2.1,2.1A2.18,2.18,0,0,0,27,12.9a2.1,2.1,0,1,0,0-4.2M11.7,15.4a2.11,2.11,0,0,0-2.1,2.1,2.2,2.2,0,0,0,2.1,2.2,2.14,2.14,0,0,0,2.1-2.2,2.11,2.11,0,0,0-2.1-2.1m7.9,2.1a2.1,2.1,0,0,0-4.2,0,2.2,2.2,0,0,0,2.1,2.2,2.2,2.2,0,0,0,2.1-2.2M8.8,26.9a2.14,2.14,0,0,0-2.1,2.2,2.11,2.11,0,0,0,2.1,2.1,2.18,2.18,0,0,0,2.1-2.1,2,2,0,0,0-2.1-2.2m11.5,0a2.22,2.22,0,0,0-2.2,2.2,2.14,2.14,0,0,0,2.2,2.1,2.11,2.11,0,0,0,2.1-2.1,2.08,2.08,0,0,0-2.1-2.2m72-18.2a2.11,2.11,0,0,0-2.1,2.1,2.1,2.1,0,1,0,2.1-2.1m0,0a2.11,2.11,0,0,0-2.1,2.1,2.1,2.1,0,1,0,2.1-2.1m20.5,19.9a1.8,1.8,0,1,1,1.8-1.8,1.73,1.73,0,0,1-1.8,1.8m0-3.2a1.5,1.5,0,1,0,1.4,1.5,1.39,1.39,0,0,0-1.4-1.5m-.2,1.8v.6h-.5V25.9h.9c.4,0,.7.2.7.6a.55.55,0,0,1-.4.6l.4.7h-.5l-.4-.6Zm.3-.9h-.3v.5h.3c.2,0,.3-.1.3-.2a.27.27,0,0,0-.3-.3" style="fill:#fff"/></g></svg>