<svg xmlns="http://www.w3.org/2000/svg" viewBox="0 0 512 512"><g><g><path style="fill:#25F4EE;" d="M221.2,218.6v-13.8c-4.6-0.6-9.3-1-14.1-1c-57.8,0-104.9,47.1-104.9,104.9c0,35.5,17.7,66.9,44.8,85.9&#9;&#9;&#9;c-17.5-18.7-27.8-43.9-27.8-71.4C119.1,266.1,164.5,219.9,221.2,218.6z"/><path style="fill:#25F4EE;" d="M223.7,371.3c25.8,0,47.2-20.9,48.2-46.5l0.1-228.1l41.4-0.4c-0.9-4.7-1.3-9.5-1.3-14.5h-57l-0.1,228.4&#9;&#9;&#9;c-1,25.6-22,46.1-47.8,46.1c-8,0-15.6-2-22.2-5.5C193.5,363.1,207.7,371.3,223.7,371.3z"/><path style="fill:#25F4EE;" d="M391.2,174.4v-13.1c-15.9,0-30.7-4.7-43.2-12.8C359.1,161.2,374.2,170.7,391.2,174.4z"/><path style="fill:#FE2C55;" d="M348.1,148.5c-12.1-13.9-19.5-32.1-19.5-52h-15.3C317.3,118.2,330.2,136.8,348.1,148.5z"/><path style="fill:#FE2C55;" d="M207,260.7c-26.4,0-47.9,21.5-47.9,47.9c0,18.4,10.4,34.4,25.7,42.4c-5.7-7.9-9.1-17.5-9.1-27.9&#9;&#9;&#9;c0-26.4,21.5-47.9,47.9-47.9c4.9,0,9.7,0.8,14.1,2.2v-58.2c-4.6-0.6-9.3-1-14.1-1c-0.8,0-1.7,0-2.5,0.1v44.7&#9;&#9;&#9;C216.7,261.5,212,260.7,207,260.7z"/><path style="fill:#FE2C55;" d="M391.2,174v44.3c-29.6,0-56.9-9.5-79.3-25.5v115.8c0,57.8-47.1,104.9-104.9,104.9c-22.4,0-43.1-7.1-60.1-19&#9;&#9;&#9;c19.2,20.6,46.5,33.5,76.7,33.5c57.8,0,104.9-47.1,104.9-104.9V207.3c22.4,16,49.7,25.5,79.3,25.5v-57&#9;&#9;&#9;C402.2,175.8,396.6,175.2,391.2,174z"/><path d="M311.9,308.6V192.8c22.4,16,49.7,25.5,79.3,25.5V174c-17.1-3.7-32.1-12.8-43.2-25.5c-17.9-11.6-30.7-30.3-34.8-52h-41.7 l-0.1,228.4c-1,25.6-22,46.1-47.8,46.1c-16,0-30.1-7.9-38.8-20c-15.2-8-25.7-24-25.7-42.4c0-26.4,21.5-47.9,47.9-47.9 c4.9,0,9.7,0.8,14.1,2.2v-44.7c-56.7,1.3-102.4,47.8-102.4,104.8c0,27.6,10.7,52.7,28.2,71.4c17,12,37.8,19,60.1,19 C264.9,413.5,311.9,366.5,311.9,308.6z"/></g></g></svg>